<svg width="15" height="15" viewBox="0 0 15 15" fill="none" xmlns="http://www.w3.org/2000/svg">
<path fill-rule="evenodd" clip-rule="evenodd" d="M7.44437 14.93C9.66154 14.93 11.6535 13.968 13.0237 12.4393C12.3863 11.8867 11.4258 11.8531 10.7472 12.3994L10.6176 12.5037C9.37522 13.5038 7.56493 13.3561 6.50195 12.1679C5.92217 11.5198 4.92928 11.4537 4.26827 12.0191L2.7737 13.2974C4.05379 14.3191 5.67756 14.93 7.44437 14.93ZM9.87038 11.3152C11.0537 10.3626 12.717 10.3967 13.8551 11.3168C14.5354 10.1923 14.9268 8.87425 14.9268 7.465C14.9268 5.8991 14.4436 4.44582 13.6177 3.24549C13.0853 3.13237 12.5082 3.26449 12.0701 3.65176L11.9455 3.76199C10.7507 4.81829 8.93551 4.75409 7.81869 3.61607C7.20958 2.99539 6.21466 2.97501 5.58052 3.57023L3.84127 5.20268L2.88449 4.18806L4.62374 2.55559C5.81165 1.44061 7.67536 1.47879 8.8164 2.64148C9.41259 3.24901 10.3816 3.28328 11.0194 2.71938L11.1441 2.60916C11.5313 2.26687 11.9792 2.03611 12.4482 1.91475C11.1226 0.724414 9.36827 0 7.44437 0C3.64601 0 0.508694 2.82369 0.026277 6.4818C1.17999 5.92946 2.60309 6.142 3.54379 7.10307C4.13765 7.70979 5.09385 7.77383 5.76367 7.25176L6.73612 6.4938C7.95824 5.54123 9.68589 5.58734 10.8552 6.60377L12.7485 8.2494L11.8313 9.29973L9.93799 7.6541C9.27307 7.07615 8.2907 7.04991 7.59574 7.59158L6.62331 8.34952C5.39266 9.30872 3.63585 9.19105 2.54477 8.07635C1.91032 7.42814 0.87266 7.40553 0.210436 8.02548L0 8.22246C0.157485 9.78164 0.795876 11.1992 1.76494 12.3253L3.35945 10.9615C4.59769 9.90237 6.45765 10.0263 7.5437 11.2403C8.11116 11.8746 9.07752 11.9534 9.74076 11.4196L9.87038 11.3152Z" fill="#001B2A"/>
</svg>
