<svg width="15" height="15" viewBox="0 0 15 15" fill="none" xmlns="http://www.w3.org/2000/svg">
<path fill-rule="evenodd" clip-rule="evenodd" d="M7.44596 14.93C9.6636 14.93 11.656 13.968 13.0264 12.4393C12.3889 11.8867 11.4282 11.8531 10.7495 12.3994L10.6199 12.5037C9.37722 13.5038 7.56654 13.3561 6.50334 12.1679C5.92344 11.5198 4.93033 11.4537 4.26919 12.0191L2.77429 13.2974C4.05465 14.3191 5.67877 14.93 7.44596 14.93ZM9.87249 11.3152C11.0561 10.3626 12.7197 10.3967 13.8581 11.3168C14.5385 10.1923 14.93 8.87425 14.93 7.465C14.93 5.8991 14.4467 4.44582 13.6206 3.24549C13.0881 3.13237 12.5109 3.26449 12.0727 3.65176L11.9481 3.76199C10.753 4.81829 8.93742 4.75409 7.82036 3.61607C7.21112 2.99539 6.21599 2.97501 5.58171 3.57023L3.84209 5.20268L2.88511 4.18806L4.62473 2.55559C5.81289 1.44061 7.677 1.47879 8.81828 2.64148C9.4146 3.24901 10.3838 3.28328 11.0218 2.71938L11.1465 2.60916C11.5337 2.26687 11.9818 2.03611 12.4509 1.91475C11.1249 0.724414 9.37028 0 7.44596 0C3.64678 0 0.508803 2.82369 0.0262826 6.4818C1.18025 5.92946 2.60365 6.142 3.54454 7.10307C4.13853 7.70979 5.09494 7.77383 5.7649 7.25176L6.73756 6.4938C7.95994 5.54123 9.68796 5.58734 10.8575 6.60377L12.7512 8.2494L11.8338 9.29973L9.94011 7.6541C9.27505 7.07615 8.29247 7.04991 7.59736 7.59158L6.62472 8.34952C5.39381 9.30872 3.63663 9.19105 2.54532 8.07635C1.91073 7.42814 0.872846 7.40553 0.210481 8.02548L0 8.22246C0.157519 9.78164 0.796046 11.1992 1.76531 12.3253L3.36016 10.9615C4.59867 9.90237 6.45903 10.0263 7.54531 11.2403C8.11289 11.8746 9.07946 11.9534 9.74284 11.4196L9.87249 11.3152Z" fill="url(#paint0_linear_1_92)"/>
<defs>
<linearGradient id="paint0_linear_1_92" x1="7.45246" y1="14.867" x2="7.45246" y2="0" gradientUnits="userSpaceOnUse">
<stop stop-color="#B52A2A"/>
<stop offset="1" stop-color="#780000"/>
</linearGradient>
</defs>
</svg>
